<svg width="24" height="20" viewBox="0 0 24 20" fill="none" xmlns="http://www.w3.org/2000/svg">
<path d="M1.34907 8.11174L1.31161 8.11997H17.3713L12.3227 3.04357C12.0755 2.79573 11.9399 2.45999 11.9399 2.10761C11.9399 1.75523 12.0755 1.42185 12.3227 1.17342L13.1083 0.384875C13.3553 0.137036 13.6845 0 14.0355 0C14.3867 0 14.7161 0.136057 14.9631 0.383896L23.6174 9.0659C23.8654 9.31472 24.001 9.64615 24 9.99873C24.001 10.3533 23.8654 10.6849 23.6174 10.9333L14.9631 19.6161C14.7161 19.8637 14.3869 20 14.0355 20C13.6845 20 13.3553 19.8636 13.1083 19.6161L12.3227 18.8276C12.0755 18.5801 11.9399 18.2497 11.9399 17.8973C11.9399 17.5451 12.0755 17.2321 12.3227 16.9844L17.4283 11.8796H1.33112C0.607805 11.8796 0 11.2542 0 10.5289V9.41358C0 8.68827 0.625757 8.11174 1.34907 8.11174Z" fill="url(#paint0_linear_601_15476)"/>
<defs>
<linearGradient id="paint0_linear_601_15476" x1="3.08477e-08" y1="-1.74243" x2="23.5974" y2="-1.74243" gradientUnits="userSpaceOnUse">
<stop stop-color="#3F4751"/>
<stop offset="1" stop-color="#3F4751"/>
</linearGradient>
</defs>
</svg>
