<svg width="97" height="83" viewBox="0 0 97 83" fill="none" xmlns="http://www.w3.org/2000/svg">
<path d="M59.7202 11.034C62.4533 9.76726 65.5522 9.06351 68.6126 9.06351C70.3834 9.06351 72.0772 9.28469 73.6747 9.70694C74.3099 9.8678 74.9258 9.3048 74.8296 8.62115L74.5986 6.69086C74.4062 3.47371 70.8838 0.879883 66.6686 0.879883C62.3378 0.879883 58.1996 3.59435 58.1996 6.95225L58.3921 10.1694C58.4498 10.8732 59.1235 11.3155 59.7202 11.034Z" fill="url(#paint0_linear_601_15481)"/>
<path fill-rule="evenodd" clip-rule="evenodd" d="M96.3439 64.3582L96.4423 64.9345C96.5209 65.5307 96.5799 66.1269 96.5996 66.7429C96.5996 75.606 87.3949 82.7999 76.1054 82.7999C64.7963 82.7999 55.6113 75.606 55.6113 66.7429V59.41C53.5855 60.344 51.186 60.8805 48.6094 60.8805C46.0329 60.8805 43.6137 60.344 41.5879 59.3901V66.7429C41.5879 75.606 32.4029 82.7999 21.0938 82.7999C9.78461 82.7999 0.599609 75.606 0.599609 66.7429C0.599609 66.1269 0.658614 65.5307 0.737286 64.9345L0.835627 64.3582C0.835627 64.3383 0.840544 64.3185 0.845461 64.2986C0.850378 64.2787 0.855295 64.2589 0.855295 64.239L4.49389 45.5589C4.96593 41.2465 8.07349 37.4708 12.5972 35.1656L14.3279 21.5927C14.3279 15.8296 20.7791 11.1199 28.5086 11.1199C36.2185 11.1199 43.5941 15.8098 43.5941 21.5728C43.5941 21.8709 43.5744 22.1491 43.5351 22.4273L43.4367 23.9177C44.9905 23.3414 46.741 23.0235 48.6094 23.0235C50.4582 23.0235 52.2087 23.3414 53.7428 23.8979L53.6445 22.4273C53.6051 22.1491 53.5855 21.851 53.5855 21.5728C53.5855 15.7899 60.9413 11.1199 68.6709 11.1199C76.4005 11.1199 82.8516 15.8296 82.8516 21.5927L84.5824 35.1656C89.1061 37.4906 92.2136 41.2465 92.6857 45.5589L96.3243 64.239C96.3243 64.2588 96.3292 64.2787 96.3341 64.2985L96.3341 64.2986L96.3341 64.2987C96.339 64.3185 96.3439 64.3384 96.3439 64.3582ZM6.32303 66.7429C6.32303 72.3072 13.0889 77.017 21.0938 77.017C29.0987 77.017 35.8645 72.3072 35.8645 66.7429C35.8645 61.1786 29.0987 56.4688 21.0938 56.4688C13.0889 56.4688 6.32303 61.1588 6.32303 66.7429ZM48.6094 55.7932C45.2462 55.7932 42.5123 53.8656 42.5123 51.5007C42.5123 49.1359 45.2462 47.2083 48.6094 47.2083C51.9727 47.2083 54.7066 49.1359 54.7066 51.5007C54.7066 53.8656 51.9727 55.7932 48.6094 55.7932ZM61.315 66.7429C61.315 72.3072 68.0809 77.017 76.0858 77.017C84.0907 77.017 90.8565 72.3072 90.8565 66.7429C90.8565 61.1786 84.0907 56.4688 76.0858 56.4688C68.0809 56.4688 61.315 61.1588 61.315 66.7429Z" fill="url(#paint1_linear_601_15481)"/>
<path d="M23.5407 9.704C25.1386 9.28093 26.8519 9.05932 28.6038 9.05932C31.6648 9.05932 34.7835 9.76444 37.498 11.0337C38.0948 11.3157 38.7686 10.8725 38.8071 10.1875L38.9996 6.96409C38.9996 3.59965 34.8605 0.879883 30.529 0.879883C26.3129 0.879883 22.8091 3.47877 22.5974 6.70219L22.3663 8.63624C22.2893 9.30107 22.8861 9.88532 23.5407 9.704Z" fill="url(#paint2_linear_601_15481)"/>
<defs>
<linearGradient id="paint0_linear_601_15481" x1="74.8396" y1="-0.0122397" x2="58.4787" y2="-0.0122393" gradientUnits="userSpaceOnUse">
<stop stop-color="#3F4751" stop-opacity="0.9"/>
<stop offset="1" stop-color="#1B1B1B"/>
</linearGradient>
<linearGradient id="paint1_linear_601_15481" x1="96.5996" y1="4.87501" x2="2.21016" y2="4.87502" gradientUnits="userSpaceOnUse">
<stop stop-color="#3F4751" stop-opacity="0.9"/>
<stop offset="1" stop-color="#1B1B1B"/>
</linearGradient>
<linearGradient id="paint2_linear_601_15481" x1="38.9996" y1="-0.0122397" x2="22.6388" y2="-0.0122393" gradientUnits="userSpaceOnUse">
<stop stop-color="#3F4751" stop-opacity="0.9"/>
<stop offset="1" stop-color="#1B1B1B"/>
</linearGradient>
</defs>
</svg>
