<svg width="27" height="24" viewBox="0 0 27 24" fill="none" xmlns="http://www.w3.org/2000/svg">
<path d="M9.69226 0.856934H3.86343C3.14619 0.857615 2.45854 1.11875 1.95146 1.58302C1.44438 2.0473 1.15929 2.67675 1.1588 3.33322V8.66636C1.15929 9.32283 1.44438 9.95228 1.95146 10.4166C2.45854 10.8808 3.14619 11.142 3.86343 11.1426H9.69226C10.4095 11.142 11.0972 10.8808 11.6042 10.4166C12.1113 9.95228 12.3964 9.32283 12.3969 8.66636V3.33322C12.3964 2.67675 12.1113 2.0473 11.6042 1.58302C11.0972 1.11875 10.4095 0.857615 9.69226 0.856934ZM10.5239 8.66636C10.5239 8.86831 10.4363 9.062 10.2804 9.20487C10.1244 9.34775 9.9129 9.42813 9.69226 9.42836H3.86343C3.64279 9.42813 3.43126 9.34775 3.27533 9.20487C3.1194 9.062 3.03181 8.86831 3.03181 8.66636V3.33322C3.03181 3.13127 3.1194 2.93758 3.27533 2.79471C3.43126 2.65183 3.64279 2.57145 3.86343 2.57122H9.69226C9.9129 2.57145 10.1244 2.65183 10.2804 2.79471C10.4363 2.93758 10.5239 3.13127 10.5239 3.33322V8.66636Z" fill="black"/>
<path d="M22.8034 0.856934H16.9745C16.2573 0.857615 15.5696 1.11875 15.0626 1.58302C14.5555 2.0473 14.2704 2.67675 14.2699 3.33322V8.66636C14.2704 9.32283 14.5555 9.95228 15.0626 10.4166C15.5696 10.8808 16.2573 11.142 16.9745 11.1426H22.8034C23.5206 11.142 24.2083 10.8808 24.7153 10.4166C25.2224 9.95228 25.5075 9.32283 25.508 8.66636V3.33322C25.5075 2.67675 25.2224 2.0473 24.7153 1.58302C24.2083 1.11875 23.5206 0.857615 22.8034 0.856934ZM23.635 8.66636C23.635 8.86831 23.5474 9.062 23.3915 9.20487C23.2355 9.34775 23.024 9.42813 22.8034 9.42836H16.9745C16.7539 9.42813 16.5424 9.34775 16.3864 9.20487C16.2305 9.062 16.1429 8.86831 16.1429 8.66636V3.33322C16.1429 3.13127 16.2305 2.93758 16.3864 2.79471C16.5424 2.65183 16.7539 2.57145 16.9745 2.57122H22.8034C23.024 2.57145 23.2355 2.65183 23.3915 2.79471C23.5474 2.93758 23.635 3.13127 23.635 3.33322V8.66636Z" fill="black"/>
<path d="M22.8034 12.8569H16.9745C16.2573 12.8576 15.5696 13.1188 15.0626 13.583C14.5555 14.0473 14.2704 14.6768 14.2699 15.3332V20.6664C14.2704 21.3228 14.5555 21.9523 15.0626 22.4166C15.5696 22.8808 16.2573 23.142 16.9745 23.1426H22.8034C23.5206 23.142 24.2083 22.8808 24.7153 22.4166C25.2224 21.9523 25.5075 21.3228 25.508 20.6664V15.3332C25.5075 14.6768 25.2224 14.0473 24.7153 13.583C24.2083 13.1188 23.5206 12.8576 22.8034 12.8569ZM23.635 20.6664C23.635 20.8683 23.5474 21.062 23.3915 21.2049C23.2355 21.3478 23.024 21.4281 22.8034 21.4284H16.9745C16.7539 21.4281 16.5424 21.3478 16.3864 21.2049C16.2305 21.062 16.1429 20.8683 16.1429 20.6664V15.3332C16.1429 15.1313 16.2305 14.9376 16.3864 14.7947C16.5424 14.6518 16.7539 14.5714 16.9745 14.5712H22.8034C23.024 14.5714 23.2355 14.6518 23.3915 14.7947C23.5474 14.9376 23.635 15.1313 23.635 15.3332V20.6664Z" fill="black"/>
<path d="M9.69226 12.8569H3.86343C3.14619 12.8576 2.45854 13.1188 1.95146 13.583C1.44438 14.0473 1.15929 14.6768 1.1588 15.3332V20.6664C1.15929 21.3228 1.44438 21.9523 1.95146 22.4166C2.45854 22.8808 3.14619 23.142 3.86343 23.1426H9.69226C10.4095 23.142 11.0972 22.8808 11.6042 22.4166C12.1113 21.9523 12.3964 21.3228 12.3969 20.6664V15.3332C12.3964 14.6768 12.1113 14.0473 11.6042 13.583C11.0972 13.1188 10.4095 12.8576 9.69226 12.8569ZM10.5239 20.6664C10.5239 20.8683 10.4363 21.062 10.2804 21.2049C10.1244 21.3478 9.9129 21.4281 9.69226 21.4284H3.86343C3.64279 21.4281 3.43126 21.3478 3.27533 21.2049C3.1194 21.062 3.03181 20.8683 3.03181 20.6664V15.3332C3.03181 15.1313 3.1194 14.9376 3.27533 14.7947C3.43126 14.6518 3.64279 14.5714 3.86343 14.5712H9.69226C9.9129 14.5714 10.1244 14.6518 10.2804 14.7947C10.4363 14.9376 10.5239 15.1313 10.5239 15.3332V20.6664Z" fill="black"/>
</svg>
