<svg width="20" height="22" viewBox="0 0 20 22" fill="none" xmlns="http://www.w3.org/2000/svg">
<path d="M11.2594 2.59997L3.04936 11.29C2.73936 11.62 2.43936 12.27 2.37936 12.72L2.00936 15.96C1.87936 17.13 2.71936 17.93 3.87936 17.73L7.09936 17.18C7.54936 17.1 8.17936 16.77 8.48936 16.43L16.6994 7.73997C18.1194 6.23997 18.7594 4.52997 16.5494 2.43997C14.3494 0.369973 12.6794 1.09997 11.2594 2.59997V2.59997Z" stroke="#4A4C9C" stroke-width="1.5" stroke-miterlimit="10" stroke-linecap="round" stroke-linejoin="round"/>
<path d="M9.89062 4.04999C10.1003 5.39084 10.7492 6.62412 11.7356 7.55623C12.722 8.48835 13.9901 9.06652 15.3406 9.19999" stroke="#4A4C9C" stroke-width="1.5" stroke-miterlimit="10" stroke-linecap="round" stroke-linejoin="round"/>
<path d="M1 21H19" stroke="#4A4C9C" stroke-width="1.5" stroke-miterlimit="10" stroke-linecap="round" stroke-linejoin="round"/>
</svg>
