<svg width="41" height="41" viewBox="0 0 41 41" fill="none" xmlns="http://www.w3.org/2000/svg">
<g opacity="0.75">
<path fill-rule="evenodd" clip-rule="evenodd" d="M14 27.4592C14 20.0378 20.0378 14 27.4592 14C34.8806 14 41 20.0378 41 27.4592C41 34.8806 34.8806 41 27.4592 41C20.0378 41 14 34.8806 14 27.4592ZM32.3535 21.3414C31.6772 21.3414 31.1299 21.8887 31.1299 22.565V25.0121C31.1299 25.6884 31.6772 26.2357 32.3535 26.2357C33.0298 26.2357 33.577 25.6884 33.577 25.0121V22.565C33.577 21.8887 33.0298 21.3414 32.3535 21.3414ZM21.3414 22.565C21.3414 21.8887 21.8887 21.3414 22.565 21.3414C23.2413 21.3414 23.7885 21.8887 23.7885 22.565V25.0121C23.7885 25.6884 23.2413 26.2357 22.565 26.2357C21.8887 26.2357 21.3414 25.6884 21.3414 25.0121V22.565ZM27.4592 33.5771C29.7474 33.5771 31.8982 32.6856 33.5149 31.0678C33.9929 30.5898 33.9929 29.8144 33.515 29.3376C33.037 28.8596 32.2627 28.8596 31.7848 29.3376C29.4739 31.6485 25.4447 31.6485 23.1338 29.3376C22.6558 28.8596 21.8815 28.8596 21.4035 29.3376C20.9256 29.8144 20.9256 30.5898 21.4035 31.0678C23.0202 32.6856 25.171 33.5771 27.4592 33.5771Z" fill="url(#paint0_linear_601_15494)"/>
<path fill-rule="evenodd" clip-rule="evenodd" d="M17.8727 16.3157C20.3679 14.1425 23.5071 12.69 27 12.4091C26.4081 5.5142 20.6161 0 13.5703 0C6.13271 0 0 6.13271 0 13.5703C0 20.6161 5.5142 26.4081 12.4092 27C12.6801 23.6292 14.0472 20.5915 16.0924 18.1381C13.8354 17.162 11.0249 17.5527 9.23541 19.3422C8.75644 19.8211 7.9804 19.8211 7.50144 19.3422C7.02247 18.8644 7.02247 18.0872 7.50144 17.6082C10.2151 14.8926 14.6081 14.483 17.8727 16.3157ZM17.249 8.66532C17.249 7.98754 17.7974 7.43909 18.4752 7.43909C19.153 7.43909 19.7015 7.98754 19.7015 8.66532V11.1178C19.7015 11.7956 19.153 12.344 18.4752 12.344C17.7974 12.344 17.249 11.7956 17.249 11.1178V8.66532ZM8.66538 7.43909C7.9876 7.43909 7.43915 7.98754 7.43915 8.66532V11.1178C7.43915 11.7956 7.9876 12.344 8.66538 12.344C9.34316 12.344 9.89161 11.7956 9.89161 11.1178V8.66532C9.89161 7.98754 9.34316 7.43909 8.66538 7.43909Z" fill="url(#paint1_linear_601_15494)"/>
</g>
<defs>
<linearGradient id="paint0_linear_601_15494" x1="41" y1="11.6477" x2="14.453" y2="11.6477" gradientUnits="userSpaceOnUse">
<stop stop-color="#F56E51"/>
<stop offset="1" stop-color="#F56E52"/>
</linearGradient>
<linearGradient id="paint1_linear_601_15494" x1="27" y1="-2.35228" x2="0.452966" y2="-2.35228" gradientUnits="userSpaceOnUse">
<stop stop-color="#F56E51"/>
<stop offset="1" stop-color="#F56E52"/>
</linearGradient>
</defs>
</svg>
