<svg width="20" height="12" viewBox="0 0 20 12" fill="none" xmlns="http://www.w3.org/2000/svg">
<path d="M10 12C5.51049 12 0 8.09276 0 6C0 3.90724 5.51049 0 10 0C14.4895 0 20 3.90724 20 6C20 8.09276 14.4895 12 10 12ZM1.92582 6.46234C2.4058 6.99398 3.06532 7.57615 3.81317 8.10641C5.71956 9.45814 7.87506 10.2774 10 10.2774C12.1249 10.2774 14.2804 9.45814 16.1868 8.10641C16.9347 7.57615 17.5942 6.99398 18.0742 6.46234C18.2291 6.29078 18.3571 6.13295 18.4518 6C18.3571 5.86705 18.2291 5.70922 18.0742 5.53766C17.5942 5.00602 16.9347 4.42385 16.1868 3.89359C14.2804 2.54186 12.1249 1.72256 10 1.72256C7.87506 1.72256 5.71956 2.54186 3.81317 3.89359C3.06532 4.42385 2.4058 5.00602 1.92582 5.53766C1.77093 5.70922 1.64286 5.86705 1.54819 6C1.64286 6.13295 1.77093 6.29078 1.92582 6.46234ZM10 9.5C8.067 9.5 6.5 7.933 6.5 6C6.5 4.067 8.067 2.5 10 2.5C11.933 2.5 13.5 4.067 13.5 6C13.5 7.933 11.933 9.5 10 9.5ZM10 7.7C10.9389 7.7 11.7 6.93888 11.7 6C11.7 5.06112 10.9389 4.3 10 4.3C9.06112 4.3 8.3 5.06112 8.3 6C8.3 6.93888 9.06112 7.7 10 7.7Z" fill="#1C2E45" fill-opacity="0.6"/>
</svg>
