<svg width="24" height="24" viewBox="0 0 24 24" fill="none" xmlns="http://www.w3.org/2000/svg">
<path fillRule="evenodd" clipRule="evenodd" d="M13.2181 22H18.1041C20.5481 22 22.5371 20.011 22.5371 17.565V6.436C22.5371 3.99 20.5481 2 18.1041 2H13.2291C10.7831 2 8.79311 3.99 8.79311 6.436V7.368C8.79311 7.782 9.12911 8.118 9.54311 8.118C9.95711 8.118 10.2931 7.782 10.2931 7.368V6.436C10.2931 4.816 11.6101 3.5 13.2291 3.5H18.1041C19.7211 3.5 21.0371 4.816 21.0371 6.436V17.565C21.0371 19.184 19.7211 20.5 18.1041 20.5H13.2181C11.6061 20.5 10.2931 19.188 10.2931 17.576V16.633C10.2931 16.219 9.95711 15.883 9.54311 15.883C9.12911 15.883 8.79311 16.219 8.79311 16.633V17.576C8.79311 20.016 10.7791 22 13.2181 22Z" fill="#F0F0FA"/>
<mask id="mask0_1295_6147" style="mask-type:alpha" maskUnits="userSpaceOnUse" x="2" y="11" width="14" height="2">
<path fillRule="evenodd" clipRule="evenodd" d="M15.5413 11.25H2.00036V12.75H15.5413V11.25Z" fill="white"/>
</mask>
<g mask="url(#mask0_1295_6147)">
<path fillRule="evenodd" clipRule="evenodd" d="M2.75026 12.75H14.7913C15.2053 12.75 15.5413 12.414 15.5413 12C15.5413 11.586 15.2053 11.25 14.7913 11.25H2.75026C2.33626 11.25 2.00026 11.586 2.00026 12C2.00026 12.414 2.33626 12.75 2.75026 12.75Z" fill="#F0F0FA"/>
</g>
<mask id="mask1_1295_6147" style="mask-type:alpha" maskUnits="userSpaceOnUse" x="2" y="8" width="5" height="8">
<path fillRule="evenodd" clipRule="evenodd" d="M6.42773 8.33594H2.00038V15.6667H6.42773V8.33594Z" fill="white"/>
</mask>
<g mask="url(#mask1_1295_6147)">
<path fillRule="evenodd" clipRule="evenodd" d="M5.67798 15.6667C5.86998 15.6667 6.06298 15.5937 6.20898 15.4457C6.50098 15.1517 6.49998 14.6777 6.20698 14.3857L3.81298 12.0007L6.20698 9.61669C6.49998 9.32469 6.50198 8.85069 6.20898 8.55669C5.91698 8.26269 5.44298 8.26269 5.14898 8.55469L2.22098 11.4697C2.07898 11.6097 1.99998 11.8017 1.99998 12.0007C1.99998 12.1997 2.07898 12.3917 2.22098 12.5317L5.14898 15.4477C5.29498 15.5937 5.48698 15.6667 5.67798 15.6667Z" fill="#F0F0FA"/>
</g>
</svg>
