<svg width="128" height="128" viewBox="0 0 128 128" fill="none" xmlns="http://www.w3.org/2000/svg">
<path d="M73.3815 104.727C67.9592 98.7618 65.3235 93.6968 65.3235 89.2425V88.9818L65.3588 88.7233C65.3903 88.4937 65.7065 86.1929 66.1293 83.2149L60.9017 81.7126L60.4993 76.7538C68.1261 72.0513 71.9077 62.0764 70.9752 52.48C66.1011 56.6961 58.6185 58.376 52.125 58.376C45.6316 58.376 38.1434 56.6916 33.2748 52.48C32.3041 62.4646 36.4004 72.2218 43.7508 76.7538L43.3484 81.7126L23.4653 87.4268C20.6485 88.2362 18.8565 90.9702 19.2553 93.8496L21.2171 108.013C21.5842 110.664 23.8703 112.64 26.5708 112.64H77.6793C78.7673 112.64 79.7849 112.315 80.6399 111.759C78.3837 109.792 75.7684 107.353 73.3815 104.727Z" fill="url(#paint0_linear_601_15470)"/>
<path fill-rule="evenodd" clip-rule="evenodd" d="M32.7826 43.3601L28.1054 40.1763C27.1259 39.5097 26.671 38.2887 26.9716 37.1334L29.6715 26.7617C30.018 25.431 30.9078 24.3129 32.1184 23.6866L49.6645 14.61C51.0307 13.9034 52.6492 13.9034 54.0154 14.61L71.5614 23.6866C72.7721 24.3129 73.6622 25.431 74.0084 26.7617L76.7083 37.1334C77.0092 38.2884 76.554 39.5097 75.5748 40.1763C74.5069 40.9034 73.6881 41.4607 72.8249 42.0482C72.2345 42.4501 71.6234 42.866 70.8976 43.3601C71.8263 49.7194 62.9217 55.04 51.8401 55.04C40.7714 55.04 31.8519 49.726 32.7826 43.3601ZM47.3008 24.4495C46.7347 24.4495 46.2542 24.8692 46.1719 25.4363L45.4229 30.5919C45.4229 33.1611 49.4514 36.7059 51.1245 38.0675C51.5418 38.4068 52.1368 38.4078 52.5541 38.0685C54.2266 36.7076 58.257 33.1617 58.257 30.5919L57.5848 25.4528C57.5096 24.8786 57.0258 24.4495 56.4533 24.4495H47.3008Z" fill="url(#paint1_linear_601_15470)"/>
<path fill-rule="evenodd" clip-rule="evenodd" d="M88.9598 66.5601C98.4039 66.5797 105.41 67.4557 106.031 70.8958C106.854 75.4563 108.668 88.9199 108.793 89.8513C108.798 89.8849 108.8 89.9022 108.8 89.9022C108.8 97.9661 95.9855 109.135 90.9538 113.21C90.3697 113.683 89.6644 113.92 88.9589 113.92C88.2552 113.92 87.5516 113.684 86.9691 113.213C81.9397 109.14 69.12 97.9674 69.12 89.9019C69.12 89.9019 71.0364 75.6207 71.8886 70.8958C72.5092 67.4557 79.5158 66.58 88.9598 66.5601ZM98.8155 84.1551C99.0164 84.252 99.2403 84.3076 99.4777 84.3076C100.332 84.3076 101.024 83.6067 101.024 82.7425C101.024 81.8779 100.332 81.177 99.4784 81.177C98.9017 81.177 98.3997 81.4977 98.1341 81.9718L92.8198 80.8089L90.1061 76.0843C90.3535 75.8065 90.5057 75.44 90.5057 75.0362C90.5057 74.1717 89.8134 73.4708 88.9598 73.4708C88.1063 73.4708 87.4143 74.1717 87.4143 75.0362C87.4143 75.44 87.5665 75.8069 87.8139 76.0843L85.1002 80.8089L79.7862 81.9718C79.5206 81.4973 79.0186 81.177 78.4419 81.177C77.5884 81.177 76.8964 81.8779 76.8964 82.7425C76.8964 83.6073 77.5884 84.3082 78.4419 84.3082C78.6794 84.3082 78.9033 84.2526 79.1042 84.1557L82.7154 88.2451L82.1659 93.7154C81.4506 93.8528 80.9098 94.4883 80.9098 95.2524C80.9098 96.1169 81.6018 96.8178 82.4553 96.8178C83.3089 96.8178 84.0008 96.1169 84.0008 95.2524C84.0008 95.1879 83.996 95.1247 83.9886 95.0626L88.9598 92.8404L93.996 95.0914C93.9909 95.1441 93.988 95.1977 93.988 95.252C93.988 96.1166 94.68 96.8175 95.5335 96.8175C96.387 96.8175 97.079 96.1166 97.079 95.252C97.079 94.4631 96.5024 93.8122 95.7528 93.7039L95.2043 88.2445L98.8155 84.1551Z" fill="url(#paint2_linear_601_15470)"/>
<defs>
<linearGradient id="paint0_linear_601_15470" x1="80.6399" y1="47.2388" x2="20.2307" y2="47.2388" gradientUnits="userSpaceOnUse">
<stop stop-color="#3F4751" stop-opacity="0.9"/>
<stop offset="1" stop-color="#1B1B1B"/>
</linearGradient>
<linearGradient id="paint1_linear_601_15470" x1="76.8" y1="10.5115" x2="27.7175" y2="10.5115" gradientUnits="userSpaceOnUse">
<stop stop-color="#3F4751" stop-opacity="0.9"/>
<stop offset="1" stop-color="#1B1B1B"/>
</linearGradient>
<linearGradient id="paint2_linear_601_15470" x1="108.8" y1="62.434" x2="69.7857" y2="62.434" gradientUnits="userSpaceOnUse">
<stop stop-color="#3F4751" stop-opacity="0.9"/>
<stop offset="1" stop-color="#1B1B1B"/>
</linearGradient>
</defs>
</svg>
