<svg width="19" height="19" viewBox="0 0 19 19" fill="none" xmlns="http://www.w3.org/2000/svg">
<path d="M8.14392 14.883H1.66992" stroke="#130F26" stroke-width="1.5" stroke-linecap="round" stroke-linejoin="round"/>
<path fill-rule="evenodd" clip-rule="evenodd" d="M12.2051 14.884C12.2051 16.926 12.8851 17.606 14.9271 17.606C16.9671 17.606 17.6481 16.926 17.6481 14.884C17.6481 12.842 16.9681 12.162 14.9271 12.162C12.8861 12.162 12.2051 12.842 12.2051 14.884Z" stroke="#130F26" stroke-width="1.5" stroke-linecap="round" stroke-linejoin="round"/>
<path d="M11.1777 4.39401H17.6487" stroke="#130F26" stroke-width="1.5" stroke-linecap="round" stroke-linejoin="round"/>
<path fill-rule="evenodd" clip-rule="evenodd" d="M7.11587 4.39301C7.11587 2.35201 6.43588 1.67101 4.39388 1.67101C2.35288 1.67101 1.67188 2.35201 1.67188 4.39301C1.67188 6.43501 2.35188 7.11501 4.39388 7.11501C6.43488 7.11501 7.11587 6.43501 7.11587 4.39301V4.39301Z" stroke="#130F26" stroke-width="1.5" stroke-linecap="round" stroke-linejoin="round"/>
</svg>
